<svg width="76" height="34" viewBox="0 0 76 34" fill="none" xmlns="http://www.w3.org/2000/svg"><g clip-path="url(#clip0)"><path d="M2.53 33v-1.518c1.165-.061 1.963-.322 2.392-.782.43-.49.66-1.15.69-1.978.061-.859.092-1.825.092-2.898V5.952c0-1.288.046-2.392.138-3.312l-1.656.092-1.656.092V.8h10.35v1.518c-1.135.03-1.932.291-2.392.782-.43.49-.675 1.15-.736 1.978a79.5 79.5 0 00-.046 2.898v7.544h3.45l5.75-9.062c.399-.613.89-1.288 1.472-2.024.583-.736 1.18-1.35 1.794-1.84a21.9 21.9 0 01-1.426.046c-.46 0-.92.015-1.38.046V.8h9.89v1.518c-1.288.092-2.438.307-3.45.644s-1.978.935-2.898 1.794c-.92.828-1.901 2.085-2.944 3.772l-4.508 7.176c.89.521 1.61 1.135 2.162 1.84.552.675 1.104 1.365 1.656 2.07l5.152 6.854c1.165 1.533 2.116 2.668 2.852 3.404.767.705 1.441 1.15 2.024 1.334a6.528 6.528 0 001.886.276V33h-5.612c-.46 0-1.135-.46-2.024-1.38a41.366 41.366 0 01-2.622-3.128l-5.52-7.452a44.54 44.54 0 00-1.748-2.162c-.583-.705-1.15-1.227-1.702-1.564l-2.254.046v10.166c0 1.625-.046 2.837-.138 3.634l1.656-.092 1.656-.092V33H2.53z" fill="#F26522"/><path d="M32.688 28.584c0-.896.181-1.68.544-2.352a3.952 3.952 0 011.488-1.584 4.15 4.15 0 012.128-.56c.768 0 1.435.165 2 .496.565.33.987.747 1.264 1.248v-1.6h1.472V33h-1.472v-1.632c-.288.512-.72.939-1.296 1.28-.565.33-1.227.496-1.984.496a3.974 3.974 0 01-2.112-.576 4.04 4.04 0 01-1.488-1.616c-.363-.693-.544-1.483-.544-2.368zm7.424.016c0-.661-.133-1.237-.4-1.728a2.754 2.754 0 00-1.088-1.12 2.854 2.854 0 00-1.488-.4c-.544 0-1.04.128-1.488.384-.448.256-.805.63-1.072 1.12-.267.49-.4 1.067-.4 1.728 0 .672.133 1.259.4 1.76a2.9 2.9 0 001.072 1.136c.448.256.944.384 1.488.384s1.04-.128 1.488-.384a2.864 2.864 0 001.088-1.136c.267-.501.4-1.083.4-1.744zm5.389-7.44V33h-1.456V21.16H45.5zm3.233 1.648a.958.958 0 01-.704-.288.958.958 0 01-.288-.704c0-.277.096-.512.288-.704a.958.958 0 01.704-.288c.267 0 .49.096.672.288a.958.958 0 01.288.704.958.958 0 01-.288.704.887.887 0 01-.672.288zm.704 1.424V33h-1.456v-8.768h1.456zm5.585 8.912c-.672 0-1.274-.112-1.808-.336-.533-.235-.954-.555-1.264-.96a2.587 2.587 0 01-.511-1.424h1.504c.042.437.245.795.607 1.072.374.277.86.416 1.456.416.555 0 .992-.123 1.313-.368.32-.245.48-.555.48-.928 0-.384-.171-.667-.512-.848-.342-.192-.87-.379-1.584-.56a12.847 12.847 0 01-1.6-.512 3.039 3.039 0 01-1.056-.784c-.288-.352-.433-.81-.433-1.376 0-.448.134-.859.4-1.232.267-.373.646-.667 1.136-.88.491-.224 1.051-.336 1.68-.336.971 0 1.755.245 2.352.736.598.49.918 1.163.96 2.016h-1.456a1.494 1.494 0 00-.56-1.104c-.33-.277-.778-.416-1.344-.416-.522 0-.938.112-1.248.336-.309.224-.463.517-.463.88 0 .288.09.528.271.72.192.181.427.33.704.448.289.107.683.23 1.184.368.63.17 1.142.341 1.536.512.395.16.731.405 1.008.736.288.33.438.763.449 1.296 0 .48-.134.912-.4 1.296-.267.384-.646.688-1.136.912-.48.213-1.035.32-1.665.32zm7.032-7.712V30.6c0 .427.09.73.272.912.181.17.496.256.944.256h1.072V33H63.03c-.81 0-1.419-.187-1.824-.56-.406-.373-.608-.987-.608-1.84v-5.168h-1.136v-1.2h1.136v-2.208h1.456v2.208h2.288v1.2h-2.288zm3.508 3.152c0-.896.181-1.68.544-2.352a3.952 3.952 0 011.488-1.584 4.15 4.15 0 012.128-.56c.768 0 1.435.165 2 .496.565.33.987.747 1.264 1.248v-1.6h1.472V33h-1.472v-1.632c-.288.512-.72.939-1.296 1.28-.565.33-1.227.496-1.984.496a3.974 3.974 0 01-2.112-.576 4.04 4.04 0 01-1.488-1.616c-.363-.693-.544-1.483-.544-2.368zm7.424.016c0-.661-.133-1.237-.4-1.728a2.754 2.754 0 00-1.088-1.12 2.854 2.854 0 00-1.488-.4c-.544 0-1.04.128-1.488.384-.448.256-.805.63-1.072 1.12-.267.49-.4 1.067-.4 1.728 0 .672.133 1.259.4 1.76a2.9 2.9 0 001.072 1.136c.448.256.944.384 1.488.384s1.04-.128 1.488-.384a2.864 2.864 0 001.088-1.136c.267-.501.4-1.083.4-1.744z" fill="#fff"/></g><defs><clipPath id="clip0"><path fill="#fff" d="M0 0h75.463v34H0z"/></clipPath></defs></svg>