<svg width="76" height="34" viewBox="0 0 76 34" fill="none" xmlns="http://www.w3.org/2000/svg">
<g clip-path="url(#clip0)">
<path d="M2.53 33V31.482C3.69533 31.4207 4.49267 31.16 4.922 30.7C5.35133 30.2093 5.58133 29.55 5.612 28.722C5.67333 27.8633 5.704 26.8973 5.704 25.824V5.952C5.704 4.664 5.75 3.56 5.842 2.64C5.29 2.67067 4.738 2.70133 4.186 2.732C3.634 2.76267 3.082 2.79333 2.53 2.824V0.799998H12.88V2.318C11.7453 2.34867 10.948 2.60933 10.488 3.1C10.0587 3.59067 9.81333 4.25 9.752 5.078C9.72133 5.906 9.706 6.872 9.706 7.976V15.52H13.156L18.906 6.458C19.3047 5.84467 19.7953 5.17 20.378 4.434C20.9607 3.698 21.5587 3.08467 22.172 2.594C21.712 2.62467 21.2367 2.64 20.746 2.64C20.286 2.64 19.826 2.65533 19.366 2.686V0.799998H29.256V2.318C27.968 2.41 26.818 2.62466 25.806 2.962C24.794 3.29933 23.828 3.89733 22.908 4.756C21.988 5.584 21.0067 6.84133 19.964 8.528L15.456 15.704C16.3453 16.2253 17.066 16.8387 17.618 17.544C18.17 18.2187 18.722 18.9087 19.274 19.614L24.426 26.468C25.5913 28.0013 26.542 29.136 27.278 29.872C28.0447 30.5773 28.7193 31.022 29.302 31.206C29.9153 31.39 30.544 31.482 31.188 31.482V33H25.576C25.116 33 24.4413 32.54 23.552 31.62C22.6933 30.7 21.8193 29.6573 20.93 28.492L15.41 21.04C14.8273 20.2733 14.2447 19.5527 13.662 18.878C13.0793 18.1727 12.512 17.6513 11.96 17.314L9.706 17.36V27.526C9.706 29.1513 9.66 30.3627 9.568 31.16C10.12 31.1293 10.672 31.0987 11.224 31.068C11.776 31.0373 12.328 31.0067 12.88 30.976V33H2.53Z" fill="#F26522"/>
<path d="M32.688 28.584C32.688 27.688 32.8693 26.904 33.232 26.232C33.5947 25.5493 34.0907 25.0213 34.72 24.648C35.36 24.2747 36.0693 24.088 36.848 24.088C37.616 24.088 38.2827 24.2533 38.848 24.584C39.4133 24.9147 39.8347 25.3307 40.112 25.832V24.232H41.584V33H40.112V31.368C39.824 31.88 39.392 32.3067 38.816 32.648C38.2507 32.9787 37.5893 33.144 36.832 33.144C36.0533 33.144 35.3493 32.952 34.72 32.568C34.0907 32.184 33.5947 31.6453 33.232 30.952C32.8693 30.2587 32.688 29.4693 32.688 28.584ZM40.112 28.6C40.112 27.9387 39.9787 27.3627 39.712 26.872C39.4453 26.3813 39.0827 26.008 38.624 25.752C38.176 25.4853 37.68 25.352 37.136 25.352C36.592 25.352 36.096 25.48 35.648 25.736C35.2 25.992 34.8427 26.3653 34.576 26.856C34.3093 27.3467 34.176 27.9227 34.176 28.584C34.176 29.256 34.3093 29.8427 34.576 30.344C34.8427 30.8347 35.2 31.2133 35.648 31.48C36.096 31.736 36.592 31.864 37.136 31.864C37.68 31.864 38.176 31.736 38.624 31.48C39.0827 31.2133 39.4453 30.8347 39.712 30.344C39.9787 29.8427 40.112 29.2613 40.112 28.6ZM45.5005 21.16V33H44.0445V21.16H45.5005ZM48.734 22.808C48.4567 22.808 48.222 22.712 48.03 22.52C47.838 22.328 47.742 22.0933 47.742 21.816C47.742 21.5387 47.838 21.304 48.03 21.112C48.222 20.92 48.4567 20.824 48.734 20.824C49.0007 20.824 49.2247 20.92 49.406 21.112C49.598 21.304 49.694 21.5387 49.694 21.816C49.694 22.0933 49.598 22.328 49.406 22.52C49.2247 22.712 49.0007 22.808 48.734 22.808ZM49.438 24.232V33H47.982V24.232H49.438ZM55.0235 33.144C54.3515 33.144 53.7488 33.032 53.2155 32.808C52.6822 32.5733 52.2608 32.2533 51.9515 31.848C51.6422 31.432 51.4715 30.9573 51.4395 30.424H52.9435C52.9862 30.8613 53.1888 31.2187 53.5515 31.496C53.9248 31.7733 54.4102 31.912 55.0075 31.912C55.5622 31.912 55.9995 31.7893 56.3195 31.544C56.6395 31.2987 56.7995 30.9893 56.7995 30.616C56.7995 30.232 56.6288 29.9493 56.2875 29.768C55.9462 29.576 55.4182 29.3893 54.7035 29.208C54.0528 29.0373 53.5195 28.8667 53.1035 28.696C52.6982 28.5147 52.3462 28.2533 52.0475 27.912C51.7595 27.56 51.6155 27.1013 51.6155 26.536C51.6155 26.088 51.7488 25.6773 52.0155 25.304C52.2822 24.9307 52.6608 24.6373 53.1515 24.424C53.6422 24.2 54.2022 24.088 54.8315 24.088C55.8022 24.088 56.5862 24.3333 57.1835 24.824C57.7808 25.3147 58.1008 25.9867 58.1435 26.84H56.6875C56.6555 26.3813 56.4688 26.0133 56.1275 25.736C55.7968 25.4587 55.3488 25.32 54.7835 25.32C54.2608 25.32 53.8448 25.432 53.5355 25.656C53.2262 25.88 53.0715 26.1733 53.0715 26.536C53.0715 26.824 53.1622 27.064 53.3435 27.256C53.5355 27.4373 53.7702 27.5867 54.0475 27.704C54.3355 27.8107 54.7302 27.9333 55.2315 28.072C55.8608 28.2427 56.3728 28.4133 56.7675 28.584C57.1622 28.744 57.4982 28.9893 57.7755 29.32C58.0635 29.6507 58.2128 30.0827 58.2235 30.616C58.2235 31.096 58.0902 31.528 57.8235 31.912C57.5568 32.296 57.1782 32.6 56.6875 32.824C56.2075 33.0373 55.6528 33.144 55.0235 33.144ZM62.0549 25.432V30.6C62.0549 31.0267 62.1455 31.3307 62.3269 31.512C62.5082 31.6827 62.8229 31.768 63.2709 31.768H64.3429V33H63.0309C62.2202 33 61.6122 32.8133 61.2069 32.44C60.8015 32.0667 60.5989 31.4533 60.5989 30.6V25.432H59.4629V24.232H60.5989V22.024H62.0549V24.232H64.3429V25.432H62.0549ZM65.563 28.584C65.563 27.688 65.7443 26.904 66.107 26.232C66.4697 25.5493 66.9657 25.0213 67.595 24.648C68.235 24.2747 68.9443 24.088 69.723 24.088C70.491 24.088 71.1577 24.2533 71.723 24.584C72.2883 24.9147 72.7097 25.3307 72.987 25.832V24.232H74.459V33H72.987V31.368C72.699 31.88 72.267 32.3067 71.691 32.648C71.1257 32.9787 70.4643 33.144 69.707 33.144C68.9283 33.144 68.2243 32.952 67.595 32.568C66.9657 32.184 66.4697 31.6453 66.107 30.952C65.7443 30.2587 65.563 29.4693 65.563 28.584ZM72.987 28.6C72.987 27.9387 72.8537 27.3627 72.587 26.872C72.3203 26.3813 71.9577 26.008 71.499 25.752C71.051 25.4853 70.555 25.352 70.011 25.352C69.467 25.352 68.971 25.48 68.523 25.736C68.075 25.992 67.7177 26.3653 67.451 26.856C67.1843 27.3467 67.051 27.9227 67.051 28.584C67.051 29.256 67.1843 29.8427 67.451 30.344C67.7177 30.8347 68.075 31.2133 68.523 31.48C68.971 31.736 69.467 31.864 70.011 31.864C70.555 31.864 71.051 31.736 71.499 31.48C71.9577 31.2133 72.3203 30.8347 72.587 30.344C72.8537 29.8427 72.987 29.2613 72.987 28.6Z" fill="white"/>
</g>
<defs>
<clipPath id="clip0">
<rect width="75.4634" height="34" fill="white"/>
</clipPath>
</defs>
</svg>
